<svg id="Icons" enable-background="new 0 0 512 512" height="512" viewBox="0 0 512 512" width="512" xmlns="http://www.w3.org/2000/svg"><g><g><circle cx="256" cy="256" fill="#b82065" r="255.984"/><path d="m0 255.76c.13-78.115 35.898-155.18 103.444-205.317 113.533-84.255 273.863-60.526 358.118 52.997 30.538 41.147 46.897 88.444 49.927 136.042-4.96 1.8-9.729 4.09-14.239 6.88-23.839 14.739-41.987 41.897-69.906 44.437-19.149 1.75-37.298-9.239-51.107-22.619-13.809-13.399-24.868-29.508-39.397-42.117-22.039-19.139-51.767-29.168-80.905-27.318s-57.346 15.569-76.795 37.348c-14.169 15.889-26.528 37.438-47.677 39.977-28.748 3.44-51.217-31.628-80.045-28.948-9.299.87-17.719 5.66-26.728 8.04-8.111 2.158-16.53 2.218-24.69.598z" fill="#d7156f"/></g><g><g><g><path d="m178.934 401.694-1.354 5.051c-.695 2.593-3.361 4.125-5.945 3.432l-112.533-30.153c-2.585-.693-4.127-3.353-3.432-5.945l1.354-5.051c.695-2.593 3.36-4.125 5.945-3.432l112.533 30.153c2.584.692 4.127 3.352 3.432 5.945z" fill="#c2aacf"/><path d="m178.934 401.694-1.354 5.051c-.695 2.593-3.361 4.125-5.945 3.432l-96.882-25.96c-2.585-.693-4.127-3.353-3.432-5.945l1.354-5.051c.695-2.593 3.36-4.125 5.945-3.432l96.882 25.96c2.584.692 4.127 3.352 3.432 5.945z" fill="#decee5"/><g fill="#f4e6f4"><ellipse cx="120.947" cy="387.377" rx="4.829" ry="16.006" transform="matrix(.259 -.966 .966 .259 -284.533 403.942)"/><ellipse cx="149.965" cy="395.152" rx="3.124" ry="11.423" transform="matrix(.259 -.966 .966 .259 -270.537 437.734)"/></g></g><g><path d="m237.283 225.539-34.021 126.97c-2.701 10.079-7.68 19.395-14.563 27.239l-13.868 15.82-111.193-29.793-4.1-20.635c-2.038-10.234-1.693-20.792 1.008-30.871l34.021-126.97c2.701-10.079 7.68-19.396 14.563-27.239l13.868-15.82 111.193 29.794 4.1 20.635c2.039 10.233 1.693 20.791-1.008 30.87z" fill="#14a36d"/><path d="m237.283 225.539-34.021 126.97c-2.701 10.079-7.68 19.395-14.563 27.239l-13.868 15.82-94.463-25.311-4.107-20.637c-2.031-10.232-1.685-20.79 1.016-30.869l34.021-126.97c2.701-10.079 7.68-19.396 14.555-27.241l13.876-15.818 94.463 25.311 4.1 20.635c2.038 10.234 1.692 20.792-1.009 30.871z" fill="#15be79"/><g fill="#33db92"><ellipse cx="199.015" cy="188.824" rx="16.638" ry="26.783" transform="matrix(.519 -.855 .855 .519 -65.667 260.969)"/><ellipse cx="220.247" cy="228.442" rx="8.716" ry="15.881" transform="matrix(1 -.013 .013 1 -3.026 2.957)"/></g></g><g><path d="m226.716 264.976-16.729-4.482c-2.466-25.802-19.186-48.021-43.909-54.645s-50.312 4.258-65.349 25.37l-16.729-4.482-12.887 48.096 16.729 4.482c2.466 25.802 19.186 48.021 43.909 54.645 24.723 6.625 50.312-4.258 65.349-25.37l16.729 4.482z" fill="#fff"/><path d="m77.262 228.129h17.319v49.793h-17.319z" fill="#ebd9ea" transform="matrix(.966 .259 -.259 .966 68.415 -13.617)"/><g><ellipse cx="148.915" cy="269.904" fill="#f39e22" rx="48.076" ry="44.236" transform="matrix(.259 -.966 .966 .259 -150.335 343.889)"/><ellipse cx="148.915" cy="269.904" fill="#f9c744" rx="35.888" ry="33.022" transform="matrix(.259 -.966 .966 .259 -150.335 343.889)"/><g fill="#c44a1a"><path d="m167.094 253.347-26.047-6.979c-2.595-.695-5.261.845-5.957 3.439-.695 2.595.845 5.261 3.439 5.957l26.047 6.979c2.595.695 5.261-.845 5.957-3.439.695-2.595-.845-5.262-3.439-5.957z"/><path d="m174.187 273.407-49.312-13.213c-2.595-.695-5.261.845-5.957 3.439-.695 2.595.845 5.261 3.439 5.957l49.312 13.213c2.595.695 5.261-.845 5.957-3.439.695-2.595-.845-5.262-3.439-5.957z"/></g></g></g><g><path d="m156.136 97.402-6.389 3.688c-7.454 4.303-9.098 14.355-3.404 20.81l14.216 18.251c4.29 5.508 11.985 7.01 18.031 3.519 6.046-3.491 8.593-10.905 5.968-17.375l-8.698-21.437c-2.743-8.158-12.271-11.759-19.724-7.456zm14.71 10.278c2.398 4.154.975 9.466-3.179 11.864l-4.511 2.604c-4.154 2.398-9.466.975-11.864-3.179l-.564-.977c-2.398-4.154-.975-9.466 3.179-11.864l4.511-2.604c4.154-2.398 9.466-.975 11.864 3.179z" fill="#c2aacf"/><g><path d="m242.16 165.729-1.354 5.051c-.695 2.593-3.361 4.125-5.945 3.432l-112.532-30.152c-2.585-.693-4.127-3.353-3.432-5.945l1.354-5.051c.695-2.593 3.36-4.125 5.945-3.432l112.533 30.153c2.584.692 4.126 3.352 3.431 5.944z" fill="#c2aacf"/><path d="m242.16 165.729-1.354 5.051c-.695 2.593-3.361 4.125-5.945 3.432l-96.882-25.96c-2.585-.693-4.127-3.353-3.432-5.945l1.354-5.051c.695-2.593 3.36-4.125 5.945-3.432l96.882 25.96c2.585.693 4.127 3.353 3.432 5.945z" fill="#decee5"/><g fill="#f4e6f4"><ellipse cx="184.174" cy="151.412" rx="4.829" ry="16.006" transform="matrix(.259 -.966 .966 .259 -9.747 290.122)"/><ellipse cx="213.191" cy="159.187" rx="3.124" ry="11.423" transform="matrix(.259 -.966 .966 .259 4.25 323.913)"/></g></g></g></g><g><g><path d="m454.977 369.028 1.354 5.051c.695 2.593-.848 5.253-3.433 5.945l-112.533 30.153c-2.585.693-5.251-.84-5.945-3.432l-1.354-5.051c-.695-2.593.848-5.253 3.432-5.945l112.533-30.153c2.585-.693 5.251.839 5.946 3.432z" fill="#c2aacf"/><path d="m454.977 369.028 1.354 5.051c.695 2.593-.848 5.253-3.433 5.945l-96.882 25.96c-2.585.693-5.251-.84-5.945-3.433l-1.354-5.051c-.695-2.593.848-5.253 3.432-5.945l96.882-25.96c2.585-.692 5.251.84 5.946 3.433z" fill="#decee5"/><g fill="#f4e6f4"><ellipse cx="397.6" cy="385.622" rx="16.006" ry="4.829" transform="matrix(.966 -.259 .259 .966 -86.258 116.046)"/><ellipse cx="426.618" cy="377.847" rx="11.423" ry="3.124" transform="matrix(.966 -.259 .259 .966 -83.257 123.292)"/></g></g><g><path d="m417.432 187.299 34.021 126.97c2.701 10.079 3.046 20.637 1.008 30.871l-4.1 20.635-111.193 29.794-13.868-15.82c-6.882-7.844-11.862-17.16-14.563-27.239l-34.021-126.97c-2.701-10.079-3.046-20.637-1.008-30.871l4.1-20.635 111.193-29.794 13.868 15.82c6.882 7.844 11.862 17.16 14.563 27.239z" fill="#0989d8"/><path d="m417.432 187.299 34.021 126.97c2.701 10.079 3.046 20.637 1.008 30.871l-4.1 20.635-94.463 25.311-13.876-15.818c-6.874-7.846-11.854-17.162-14.555-27.241l-34.021-126.97c-2.701-10.079-3.046-20.637-1.016-30.869l4.107-20.637 94.463-25.311 13.868 15.82c6.883 7.844 11.863 17.16 14.564 27.239z" fill="#29a3fb"/><g fill="#7ed0fc"><ellipse cx="365.933" cy="174.636" rx="16.638" ry="26.783" transform="matrix(.022 -1 1 .022 183.303 536.646)"/><ellipse cx="404.129" cy="198.331" rx="8.716" ry="15.881" transform="matrix(.859 -.511 .511 .859 -44.579 234.622)"/></g></g><g><path d="m427.999 226.736-16.729 4.482c-15.036-21.112-40.626-31.994-65.349-25.37-24.723 6.625-41.443 28.844-43.909 54.645l-16.729 4.482 12.887 48.096 16.729-4.482c15.036 21.112 40.626 31.994 65.349 25.37s41.443-28.844 43.909-54.645l16.729-4.482z" fill="#fff"/><path d="m291.432 261.887h17.319v49.793h-17.319z" fill="#ebd9ea" transform="matrix(.966 -.259 .259 .966 -64 87.441)"/><g><ellipse cx="363.085" cy="269.904" fill="#f39e22" rx="44.236" ry="48.076" transform="matrix(.966 -.259 .259 .966 -57.485 103.17)"/><ellipse cx="363.085" cy="269.904" fill="#f9c744" rx="33.022" ry="35.888" transform="matrix(.966 -.259 .259 .966 -57.485 103.17)"/><g fill="#c44a1a"><path d="m370.549 246.476-26.047 6.979c-2.595.695-4.134 3.362-3.439 5.957.695 2.595 3.362 4.134 5.957 3.439l26.047-6.979c2.595-.695 4.134-3.362 3.439-5.957-.695-2.595-3.362-4.135-5.957-3.439z"/><path d="m386.722 260.302-49.312 13.213c-2.595.695-4.134 3.362-3.439 5.957.695 2.595 3.362 4.134 5.957 3.439l49.312-13.213c2.595-.695 4.134-3.362 3.439-5.957-.695-2.595-3.362-4.134-5.957-3.439z"/></g></g></g><g><path d="m336.14 104.858-8.698 21.437c-2.625 6.469-.078 13.884 5.968 17.375 6.046 3.491 13.741 1.989 18.031-3.519l14.216-18.251c5.694-6.454 4.049-16.506-3.404-20.81l-6.389-3.688c-7.453-4.303-16.981-.702-19.724 7.456zm5.578 1.846c2.398-4.154 7.71-5.577 11.864-3.179l4.511 2.604c4.154 2.398 5.577 7.71 3.179 11.864l-.564.977c-2.398 4.154-7.71 5.577-11.864 3.179l-4.511-2.604c-4.154-2.398-5.577-7.71-3.179-11.864z" fill="#c2aacf"/><g><path d="m391.75 133.063 1.354 5.051c.695 2.593-.848 5.253-3.433 5.945l-112.533 30.153c-2.585.693-5.251-.84-5.945-3.433l-1.354-5.051c-.695-2.593.848-5.253 3.432-5.945l112.533-30.153c2.586-.692 5.252.841 5.946 3.433z" fill="#c2aacf"/><path d="m391.75 133.063 1.354 5.051c.695 2.593-.848 5.253-3.433 5.945l-96.882 25.96c-2.585.693-5.25-.84-5.945-3.433l-1.354-5.051c-.695-2.593.848-5.253 3.432-5.945l96.882-25.96c2.586-.692 5.252.841 5.946 3.433z" fill="#decee5"/><g fill="#f4e6f4"><ellipse cx="334.374" cy="149.658" rx="16.006" ry="4.829" transform="matrix(.966 -.259 .259 .966 -27.341 91.642)"/><ellipse cx="363.391" cy="141.883" rx="11.423" ry="3.124" transform="matrix(.966 -.259 .259 .966 -24.34 98.887)"/></g></g></g></g></g><g fill="#ed72ab"><path d="m256 113.465c-2.35 0-4.256-1.905-4.256-4.256v-45.914c0-2.35 1.905-4.256 4.256-4.256 2.35 0 4.256 1.905 4.256 4.256v45.914c0 2.35-1.906 4.256-4.256 4.256z"/><path d="m234.928 115.012c-2.27.608-4.604-.739-5.212-3.009l-9.189-34.294c-.608-2.27.739-4.604 3.009-5.212 2.27-.608 4.604.739 5.212 3.009l9.189 34.294c.608 2.271-.739 4.604-3.009 5.212z"/><path d="m213.331 121.363c-2.035 1.175-4.638.478-5.813-1.558l-12.025-20.829c-1.175-2.035-.478-4.638 1.558-5.813 2.035-1.175 4.638-.478 5.813 1.558l12.025 20.829c1.174 2.035.477 4.638-1.558 5.813z"/><path d="m277.072 115.012c2.27.608 4.604-.739 5.212-3.009l9.189-34.294c.608-2.27-.739-4.604-3.009-5.212-2.27-.608-4.604.739-5.212 3.009l-9.189 34.294c-.608 2.271.739 4.604 3.009 5.212z"/><path d="m298.669 121.363c2.035 1.175 4.638.478 5.813-1.558l12.025-20.829c1.175-2.035.478-4.638-1.558-5.813-2.035-1.175-4.638-.478-5.813 1.558l-12.025 20.829c-1.174 2.035-.477 4.638 1.558 5.813z"/></g></g></svg>